<mxfile host="app.diagrams.net" modified="2023-11-26T05:13:15.503Z" agent="Mozilla/5.0 (Macintosh; Intel Mac OS X 10_15_7) AppleWebKit/537.36 (KHTML, like Gecko) Chrome/119.0.0.0 Safari/537.36" version="22.1.4" etag="UDfYCx-5WD1HOd8SCUIS" type="github">
  <diagram name="第 1 页" id="4WuXb1imw03VXbQNnLiD">
    <mxGraphModel>
      <root>
        <mxCell id="0" />
        <mxCell id="1" parent="0" />
      </root>
    </mxGraphModel>
  </diagram>
</mxfile>
